<svg preserveAspectRatio="none" width="100%" height="100%" overflow="visible" style="display: block;" viewBox="0 0 20 20" fill="none" xmlns="http://www.w3.org/2000/svg">
<g id="Frame">
<path id="Vector" d="M8.33398 11.0242C8.45198 11.2175 8.59207 11.4004 8.75415 11.569C9.7604 12.6163 11.2942 12.78 12.4653 12.0602C12.6823 11.9268 12.8868 11.7631 13.0733 11.569L15.7728 8.75954C16.9655 7.51824 16.9655 5.50568 15.7728 4.26436C14.5801 3.02304 12.6463 3.02305 11.4536 4.26436L10.859 4.88319" stroke="var(--stroke-0, #898989)" stroke-width="1.66667" stroke-linejoin="round"/>
<path id="Vector_2" d="M9.14257 15.1167L8.54774 15.7357C7.35504 16.977 5.42124 16.977 4.22853 15.7357C3.0358 14.4943 3.0358 12.4818 4.22853 11.2405L6.92804 8.431C8.12076 7.18967 10.0546 7.18966 11.2472 8.431C11.4093 8.59958 11.5493 8.7825 11.6673 8.97566" stroke="var(--stroke-0, #898989)" stroke-width="1.66667" stroke-linejoin="round"/>
<path id="Vector_3" d="M17.5007 13.3334H14.9349M13.334 17.5V14.9343" stroke="var(--stroke-0, #898989)" stroke-width="1.66667" stroke-linejoin="round"/>
<path id="Vector_4" d="M2.5 6.66667H5.06574M6.66667 2.5V5.06574" stroke="var(--stroke-0, #898989)" stroke-width="1.66667" stroke-linejoin="round"/>
</g>
</svg>
