<svg preserveAspectRatio="none" width="100%" height="100%" overflow="visible" style="display: block;" viewBox="0 0 12 12" fill="none" xmlns="http://www.w3.org/2000/svg">
<g id="Frame" clip-path="url(#clip0_150_147)">
<path id="Vector" d="M4.50705 6.99452V8.48811H1.00612C1.00336 8.48811 1.00112 8.48587 1.00112 8.48307V1.00497C1.00112 1.00221 1.00336 0.999965 1.00612 0.999965H8.49464C8.49739 0.999965 8.49964 1.00221 8.49964 1.00497V4.4845H7.00129M5.99434 4.48439H4.48959C4.48683 4.48439 4.48459 4.48663 4.48459 4.4894V6.00187M9.48894 10.9998H10.9937C10.9964 10.9998 10.9987 10.9976 10.9987 10.9948V9.48232M10.9958 7.00152V8.50052M8.49079 10.9949H7.00069M5.99434 11H4.48959C4.48683 11 4.48459 10.9977 4.48459 10.995V9.99377M9.99069 4.49838H10.9937C10.9965 4.49838 10.9987 4.50062 10.9987 4.50339V5.99902" stroke="var(--stroke-0, black)"/>
</g>
<defs>
<clipPath id="clip0_150_147">
<rect width="12" height="12" fill="white"/>
</clipPath>
</defs>
</svg>
