<svg preserveAspectRatio="none" width="100%" height="100%" overflow="visible" style="display: block;" viewBox="0 0 18 18" fill="none" xmlns="http://www.w3.org/2000/svg">
<g id="Frame" clip-path="url(#clip0_150_163)">
<path id="Vector" d="M6.48057 9.27913L7.89827 7.86156L7.48 5.24557C7.47942 5.24194 7.47628 5.23926 7.47259 5.23926H5.26926C5.26523 5.23926 5.26193 5.24239 5.26178 5.24641C5.17761 7.46196 6.43673 10.0835 8.71809 11.5695M8.71809 11.5695C9.83597 12.2976 11.1992 12.7531 12.7702 12.7546C12.7743 12.7546 12.7778 12.7512 12.7778 12.7471V10.584C12.7778 10.5803 12.7751 10.5772 12.7715 10.5766L10.1171 10.1254L8.71809 11.5695Z" stroke="var(--stroke-0, #898989)" stroke-width="1.5"/>
<path id="Vector_2" d="M8.99951 16.5015C13.1424 16.5015 16.501 13.1429 16.501 9C16.501 4.85705 13.1424 1.49854 8.99951 1.49854C4.85656 1.49854 1.49805 4.85705 1.49805 9C1.49805 10.4167 1.82352 11.6234 2.50604 12.7537L1.50143 16.4889C1.49993 16.4944 1.50504 16.4996 1.51062 16.498L5.22734 15.4995C6.36208 16.1896 7.57428 16.5015 8.99951 16.5015Z" stroke="var(--stroke-0, #898989)" stroke-width="1.5"/>
</g>
<defs>
<clipPath id="clip0_150_163">
<rect width="18" height="18" fill="white"/>
</clipPath>
</defs>
</svg>
